<?xml version="1.0" encoding="iso-8859-1"?>
<!-- Uploaded to: SVG Repo, www.svgrepo.com, Generator: SVG Repo Mixer Tools -->
<!DOCTYPE svg PUBLIC "-//W3C//DTD SVG 1.1//EN" "http://www.w3.org/Graphics/SVG/1.1/DTD/svg11.dtd">
<svg fill="#000000" height="800px" width="800px" version="1.1" id="Capa_1" xmlns="http://www.w3.org/2000/svg" xmlns:xlink="http://www.w3.org/1999/xlink" 
	 viewBox="0 0 477.683 477.683" xml:space="preserve">
<g>
	<path d="M128.237,112.35c31.016,0,56.169-25.146,56.169-56.17S159.253,0,128.237,0C97.22,0,72.049,25.154,72.049,56.179
		S97.22,112.35,128.237,112.35z"/>
	<path d="M450.579,322.566H251.424l-2.371-4.856c-9.506-19.471-29.281-31.826-50.947-31.826h-29.388v-42.413l20.749,23.833
		c3.979,4.569,9.752,7.197,15.811,7.197h101.664c11.578,0,20.962-9.383,20.962-20.961s-9.384-20.961-20.962-20.961h-92.117
		l-46.107-52.961v-2.497c0-23.689-20.118-42.891-44.937-42.891c-24.802,0-44.92,19.202-44.92,42.891v142.302
		c0,7.076,2.216,13.618,5.957,19.029H68.577c-8.999,0-16.319-7.32-16.319-16.319V194.48c0-11.578-9.384-20.962-20.962-20.962
		c-11.578,0-20.961,9.384-20.961,20.962v127.653c0,32.114,26.128,58.242,58.242,58.242h51.807v76.347
		c0,11.578,9.384,20.961,20.961,20.961c11.578,0,20.961-9.384,20.961-20.961v-97.308c0-2.289-0.624-4.391-1.302-6.453h26.898
		c2.268,0,4.341,1.293,5.338,3.332l45.78,93.805c5.814,11.905,17.744,18.832,30.165,18.832c4.939,0,9.95-1.096,14.69-3.405
		c16.646-8.124,23.549-28.208,15.426-44.854l-31.51-64.563h166.018v100.616c0,9.261,7.509,16.769,16.77,16.769
		s16.77-7.508,16.77-16.769V339.336C467.348,330.075,459.84,322.566,450.579,322.566z"/>
	<path d="M284.286,296.291c0,9.261,7.508,16.77,16.769,16.77h97.824c7.238,0,13.667-4.643,15.926-11.521l33.539-101.811
		c2.898-8.802-1.883-18.276-10.677-21.174c-8.819-2.932-18.284,1.883-21.175,10.677l-29.748,90.291h-85.689
		C291.794,279.522,284.286,287.03,284.286,296.291z"/>
</g>
</svg>